{"title":"DISNEYS-THE WILD IN H.264 BY STIG","uid":5047570,"size":735227533,"categoryP":"video","categoryS":"movies","magnet":"?xt=urn:btih:18d90b613a2750d14f9b67513bd5efd8eb09e26d&amp;dn=DISNEYS-THE+WILD+IN+H.264+BY+STIG&amp;tr=udp%3A%2F%2Ftracker.openbittorrent.com%3A80&amp;tr=udp%3A%2F%2Fopen.demonii.com%3A1337&amp;tr=udp%3A%2F%2Ftracker.coppersurfer.tk%3A6969&amp;tr=udp%3A%2F%2Fexodus.desync.com%3A6969","seeders":0,"leechers":2,"uploader":"alanwatson","files":4,"time":1249722983,"description":"Ryan (Greg Cipes) is a lion who wants to go to the wild, where his dad (Samson, voiced by Keifer Sutherland) once lived. When he gets himself shipped to Africa, his zoo friends (and Samson) work together to bring him back. When they get to Africa, however, the animals find themselves in a pile of danger. They have to fight an evil wildebeest called Kazar (William Shatner). But Kazar's safe compared to the other danger on the island- a volcano that's on the edge of eruption. Can the animals find Ryan and get out of Africa before the volcano erupts in so little time?\n\nFormat : MPEG-4\nFormat profile : Base Media / Version 2\nCodec ID : mp42\nFile size : 698 MiB\nDuration : 1h 18mn\nOverall bit rate : 1 248 Kbps\nEncoded date : UTC 2009-08-07 01:35:18\nTagged date : UTC 2009-08-07 05:15:23\nWriting application : HandBrake 0.9.3 2008112300\n\nVideo\nID : 1\nFormat : AVC\nFormat/Info : Advanced Video Codec\nFormat profile : &lt;a class=&quot;__cf_email__&quot; href=&quot;/cdn-cgi/l/email-protection&quot; data-cfemail=&quot;2c614d45426c6018021c&quot;&gt;[email&amp;#160;protected]&lt;/a&gt;&lt;script cf-hash='f9e31' type=&quot;text/javascript&quot;&gt;\n/* &lt;![CDATA[ */!function(){try{var t=&quot;currentScript&quot;in document?document.currentScript:function(){for(var t=document.getElementsByTagName(&quot;script&quot;),e=t.length;e--;)if(t[e].getAttribute(&quot;cf-hash&quot;))return t[e]}();if(t&amp;&amp;t.previousSibling){var e,r,n,i,c=t.previousSibling,a=c.getAttribute(&quot;data-cfemail&quot;);if(a){for(e=&quot;&quot;,r=parseInt(a.substr(0,2),16),n=2;a.length-n;n+=2)i=parseInt(a.substr(n,2),16)^r,e+=String.fromCharCode(i);e=document.createTextNode(e),c.parentNode.replaceChild(e,c)}}}catch(u){}}();/* ]]&gt; */&lt;/script&gt;\nFormat settings, CABAC : Yes\nFormat settings, ReFrames : 3 frames\nCodec ID : avc1\nCodec ID/Info : Advanced Video Coding\nDuration : 1h 18mn\nBit rate mode : Variable\nBit rate : 1 084 Kbps\nWidth : 720 pixels\nHeight : 574 pixels\nDisplay aspect ratio : 16/9\nFrame rate mode : Variable\nFrame rate : 25.000 fps\nMinimum frame rate : 12.500 fps\nMaximum frame rate : 38.278 fps\nResolution : 24 bits\nColorimetry : 4:2:0\nScan type : Progressive\nBits/(Pixel*Frame) : 0.105\nStream size : 607 MiB (87%)\n\nAudio\nID : 2\nFormat : AAC\nFormat/Info : Advanced Audio Codec\nFormat version : Version 4\nFormat profile : LC\nFormat settings, SBR : No\nCodec ID : 40\nDuration : 1h 18mn\nBit rate mode : Variable\nBit rate : 160 Kbps\nMaximum bit rate : 212 Kbps\nChannel(s) : 2 channels\nChannel positions : L R\nSampling rate : 48.0 KHz\nResolution : 16 bits\nStream size : 89.5 MiB (13%)\nLanguage : English\nEncoded date : UTC 2009-08-07 01:35:19\nTagged date : UTC 2009-08-07 05:15:20","torrent":{"xt":"urn:btih:18d90b613a2750d14f9b67513bd5efd8eb09e26d","amp;dn":"DISNEYS-THE+WILD+IN+H.264+BY+STIG","amp;tr":["udp%3A%2F%2Ftracker.openbittorrent.com%3A80","udp%3A%2F%2Fopen.demonii.com%3A1337","udp%3A%2F%2Ftracker.coppersurfer.tk%3A6969","udp%3A%2F%2Fexodus.desync.com%3A6969"],"infoHash":"18d90b613a2750d14f9b67513bd5efd8eb09e26d","infoHashBuffer":{"type":"Buffer","data":[24,217,11,97,58,39,80,209,79,155,103,81,59,213,239,216,235,9,226,109]},"announce":[],"urlList":[]}}